<?xml version="1.0" encoding="UTF-8" standalone="no"?>
<svg
   xmlns:dc="http://purl.org/dc/elements/1.1/"
   xmlns:cc="http://creativecommons.org/ns#"
   xmlns:rdf="http://www.w3.org/1999/02/22-rdf-syntax-ns#"
   xmlns:svg="http://www.w3.org/2000/svg"
   xmlns="http://www.w3.org/2000/svg"
   xmlns:sodipodi="http://sodipodi.sourceforge.net/DTD/sodipodi-0.dtd"
   xmlns:inkscape="http://www.inkscape.org/namespaces/inkscape"
   version="1.1"
   viewBox="0 0 1071.8692 698.79709"
   id="svg2"
   inkscape:version="0.91 r13725"
   sodipodi:docname="bw-creditcard.svg"
   width="30.25053cm"
   height="19.721607cm">
  <defs
     id="defs243" />
  <sodipodi:namedview
     pagecolor="#ffffff"
     bordercolor="#666666"
     borderopacity="1"
     objecttolerance="10"
     gridtolerance="10"
     guidetolerance="10"
     inkscape:pageopacity="0"
     inkscape:pageshadow="2"
     inkscape:window-width="1280"
     inkscape:window-height="702"
     id="namedview241"
     showgrid="false"
     showguides="false"
     inkscape:zoom="0.62337472"
     inkscape:cx="535.9346"
     inkscape:cy="349.39853"
     inkscape:window-x="0"
     inkscape:window-y="28"
     inkscape:window-maximized="1"
     inkscape:current-layer="svg2"
     fit-margin-top="1"
     units="cm"
     fit-margin-left="1"
     fit-margin-right="1"
     fit-margin-bottom="1" />
  <path
     id="path237"
     style="fill:#000000;fill-opacity:1"
     d="m 592.30307,465.10401 c 0.85,0.07 2.57,0.2 3.42,0.27 0.03,1.88 -1.67,2.46 -3.07,3.16 -0.09,-0.86 -0.26,-2.57 -0.35,-3.43 z m -416.32,114.6 c 0.61,-1.63 1.33,-3.21 2.04,-4.78 0.81,2.64 1.56,5.3 2.28,7.97 0.6,2.27 1.19,4.54 1.79,6.81 -2.9,-0.03 -5.8,-0.06 -8.71,-0.09 0.85,-3.31 1.6,-6.64 2.6,-9.91 z m 198.3,-7.04 c 3.75,0.32 7.69,0.12 11.23,1.6 8.69,4.47 9.03,18.84 0.65,23.81 -3.64,1.7 -7.81,1.47 -11.72,1.87 -0.02,-9.09 -0.25,-18.19 -0.16,-27.28 z m 66.63,-0.17 c 3.02,0.24 6.23,0.05 9.03,1.42 3.83,1.76 3.69,8.04 0.06,9.96 -2.8,1.42 -6,1.53 -9.04,2.03 -0.05,-4.47 -0.02,-8.94 -0.05,-13.41 z m -130.76,3.65 c 3.41,-5.3 12.26,-5.63 15.84,-0.35 3.6,5.23 2.41,11.92 2.36,17.89 -3.04,2.91 -6.21,6.92 -10.89,6.58 -5.04,-0.06 -7.38,-5.22 -9.91,-8.75 0.19,-5.16 -0.36,-10.84 2.6,-15.37 z m -72.69,-3.9 c 4.76,0.8 10.26,0.57 14.1,3.97 3.73,3.83 3.51,9.55 4.75,14.43 -4.33,5.56 -10.82,8.96 -17.76,9.9 -0.28,-1.54 -0.56,-3.07 -0.76,-4.62 -0.71,-7.87 -0.5,-15.79 -0.33,-23.68 z m -33.25,-0.09 c 4.17,0.72 8.32,1.58 12.46,2.47 -0.65,3.42 -1.43,6.82 -2.42,10.17 -1.38,0.05 -2.76,0.11 -4.14,0.18 -1.87,0.01 -3.75,-0.01 -5.62,-0.02 -0.07,-4.27 -0.17,-8.53 -0.28,-12.8 z m 191.39,-65.6 c 1.25,-0.04 2.51,-0.06 3.77,-0.08 0.01,1.29 0.02,2.58 0.03,3.88 -1.3,0.02 -2.61,0.04 -3.9,0.06 0.02,-1.29 0.06,-2.58 0.1,-3.86 z m 204.43,-17.41 c 5.58,-0.02 11.15,-0.02 16.73,0 -0.24,3.05 -0.4,6.1 -0.52,9.16 -5.25,0.05 -10.5,0.01 -15.75,0.01 -0.17,-3.06 -0.33,-6.12 -0.46,-9.17 z m -33.32,-0.04 c 5.58,-0.03 11.16,-0.12 16.74,-0.08 -0.15,3.09 -0.34,6.18 -0.52,9.27 -5.3,0.12 -10.6,0.04 -15.9,0.06 -0.07,-3.09 -0.17,-6.17 -0.32,-9.25 z m -156.71,-1.96 c 3.71,0.22 7.27,3.24 6.73,7.21 -0.15,3.53 -3.55,5.52 -6.77,5.62 -0.08,-4.28 -0.07,-8.56 0.04,-12.83 z m 86.64,-22.44 c 2.35,-0.05 4.7,0 7.05,0.2 -0.21,3.84 0.43,9.23 -4.37,10.49 -3.11,-2.72 -2.56,-7 -2.68,-10.69 z m -304.67,-2.36 c 2.67,-3.36 5.51,-6.58 8.42,-9.74 0.07,3.25 0.16,6.5 0.25,9.74 -2.89,0.01 -5.78,0.01 -8.67,0 z m 197.12,-51.45 c 6.63,-0.04 13.27,0 19.91,-0.04 0.18,3.6 0.29,7.2 0.22,10.8 -6.58,0.25 -13.16,0.15 -19.73,0.24 -0.28,-3.66 -0.35,-7.33 -0.4,-11 z m 294.95,-0.82 c 6.28,-0.36 12.6,0.31 18.87,-0.45 0.09,3.9 0.24,7.8 0.45,11.7 -6.67,0.35 -13.35,0.68 -20.04,0.53 -0.09,-3.82 -0.1,-7.65 0,-11.47 l 0.72,-0.31 z m -84.46,-4.56 c 0.63,0.01 1.88,0.03 2.51,0.05 5.25,0.85 10.57,0.68 15.87,0.62 0.09,5.29 0.16,10.6 -0.29,15.88 -5.95,-0.09 -11.89,-0.02 -17.83,-0.08 -0.42,-1.9 -0.85,-3.78 -1.16,-5.68 0.02,-3.62 0.45,-7.21 0.9,-10.79 z m -126.55,0.07 c 6.62,-0.09 13.25,0.06 19.87,0.07 0,5.51 0.41,11.01 0.5,16.52 -6.84,0.05 -13.67,0.06 -20.5,0.04 0.05,-5.55 0.08,-11.09 0.13,-16.63 z m 131.47,-21.14 c 2.81,-0.16 5.61,-0.34 8.42,-0.5 0.04,5.53 -0.01,11.06 -0.48,16.57 -2.16,0.17 -4.33,0.3 -6.49,0.43 -0.49,-5.5 -0.74,-11.02 -1.45,-16.5 z m -48.06,-0.33 c 7.01,-0.11 14.02,-0.08 21.03,0.03 -0.05,3.56 -0.31,7.11 -0.67,10.66 -6.67,1.02 -13.44,0.42 -20.15,0.48 -0.11,-3.73 -0.18,-7.45 -0.21,-11.17 z m -77.51,-0.23 c 2.81,0.12 5.62,0.29 8.44,0.5 -0.42,5.37 -0.41,10.76 -0.75,16.13 -2.39,0.16 -4.79,0.31 -7.18,0.45 -0.29,-5.69 -0.51,-11.38 -0.51,-17.08 z m 330.29,-241.77 c 3.52,-1.55 7.43,-1.73 11.19,-2.33 -0.03,3.58 -0.04,7.17 0.07,10.75 -3.4,1.48 -7.21,2.95 -10.95,2.02 -4.48,-1.31 -4.55,-8.72 -0.31,-10.44 z m -231.39,0.81 c 3.72,-2.19 8.14,-2.38 12.28,-3.15 0.1,3.5 0.15,6.99 0.2,10.49 -4.05,1.71 -9.61,4.43 -13.37,0.78 -0.75,-2.56 -1.58,-6.23 0.89,-8.12 z m -51.36,-7.74 c 4.79,0.17 9.94,-0.55 14.39,1.66 4.71,2.41 3.96,10.24 -0.78,12.21 -4.29,1.84 -9.1,1.07 -13.63,1.48 0,-5.12 0,-10.23 0.02,-15.35 z m 402.95,-2.35 c 1.26,-3.64 3.14,-7.67 7.03,-9.06 3.05,-0.87 7.16,-0.43 8.98,2.53 1.29,2.07 1.94,4.45 2.69,6.75 -6.24,0.17 -12.47,-0.1 -18.7,-0.22 z m -402.99,-7.78 c 0.06,-4.51 -0.07,-9.03 0.31,-13.53 3.3,0.51 6.75,0.5 9.92,1.64 4.33,1.27 4.29,7.49 1.57,10.32 -3.68,1.63 -7.88,1.2 -11.8,1.57 z m -490.999999,-48.76 c 0.24,-21.42 19.53,-40.52 40.93,-40.68 304.689999,-0.03 609.369999,0.41 914.059999,-0.17 11.94003,-0.24 24.32003,3.46 32.96003,12 8.26,7.98 13.05,19.44 13.05,30.92 0,180.66 -0.2,361.33 0,541.99 0.2,15.43 -9.42,29.93 -22.75,37.25 -4.14,2.58 -9.07,3.36 -13.29,5.76 l -927.590029,0 c -1.97,-0.93 -4.01,-1.7 -6.12,-2.25 -16.35,-4.71 -29.61,-19.65 -31.24,-36.74 -0.03,-182.68 0.04,-365.39 -0.01,-548.08 m 628.009999,22.24 c 0.16,20.93 -0.55,41.88 0.4,62.8 4.55,0.1 9.1,0.03 13.65,0.02 -0.01,-6.59 -0.41,-13.26 1.15,-19.73 5.67,5.76 9.03,13.22 13.58,19.8 5.59,-0.1 11.18,0 16.77,-0.15 -5.77,-8.54 -11.53,-17.09 -17.13,-25.74 5.27,-6.4 10.64,-12.74 15.54,-19.44 -5.58,-0.02 -11.16,0.01 -16.73,0.25 -4.18,5.83 -8.47,11.58 -13.05,17.09 -0.21,-11.63 -0.07,-23.26 -0.07,-34.89 -4.71,0 -9.41,0 -14.11,-0.01 m -152.13,2.83 c -0.04,20 -0.07,40 -0.1,60 11.1,-0.29 22.29,0.84 33.32,-0.88 10.15,-1.42 17.71,-12.76 14.31,-22.63 -1.23,-4.96 -6.16,-7.34 -10.31,-9.48 5.97,-4.52 9.21,-13.48 5.13,-20.24 -2.86,-4.96 -9.02,-5.81 -14.16,-6.58 -9.38,-0.88 -18.8,0.14 -28.19,-0.19 m 222.98,0 c 0,20 -0.01,40 -0.05,60 4.61,0 9.23,0.02 13.86,-0.03 -0.02,-13.67 -0.2,-27.33 0.06,-41 8.49,13.22 15.26,27.44 23.23,40.96 4.7,0.09 9.4,0.08 14.1,0.1 0.56,-20.01 0.22,-40.02 0.21,-60.03 -4.47,-0.02 -8.93,-0.04 -13.39,-0.06 -0.19,11.08 0.12,22.16 -0.46,33.23 -6.93,-10.61 -12.63,-21.99 -18.77,-33.07 -6.26,-0.21 -12.53,-0.06 -18.79,-0.1 m -168.29,15.37 c -0.49,3.72 -0.72,7.46 -0.87,11.2 6.24,-1.8 12.82,-4.65 19.39,-2.91 3.2,0.72 5.3,3.44 6.62,6.27 -8.15,1.16 -17.18,0.64 -24.2,5.63 -5.14,3.57 -6.13,10.88 -4.37,16.51 1.7,5.92 7.88,10.07 13.99,9.63 4.82,-0.28 8.94,-3.11 12.94,-5.54 0.7,1.3 1.41,2.6 2.13,3.91 4.18,-0.01 8.36,-0.04 12.54,-0.1 -0.17,-11.3 0.4,-22.61 -0.23,-33.9 -0.26,-5.61 -5.09,-9.96 -10.25,-11.38 -9.06,-2.43 -18.68,-1.57 -27.69,0.68 m 290.5,3.95 c 0.05,-1.5 0.11,-3 0.18,-4.5 -4.67,0.01 -9.33,0 -14,0.1 0.03,15.01 -0.18,30.01 0.23,45.02 4.58,0.13 9.17,0.02 13.76,-0.03 0.08,-10.94 0.02,-21.88 -0.07,-32.82 2.57,-0.84 5.14,-1.79 7.87,-2.04 2.21,-0.2 4.47,1.46 4.64,3.74 1.44,10.31 0.35,20.73 0.68,31.08 4.74,-0.03 9.49,0.01 14.24,-0.22 -0.26,-10.86 -0.11,-21.71 -0.21,-32.57 2.84,-0.95 5.72,-2.14 8.77,-2.02 2.45,0.17 3.89,2.65 3.88,4.92 0.98,9.91 0.16,19.9 0.39,29.84 4.71,-0.03 9.42,-0.11 14.14,-0.16 -0.17,-9.56 0.04,-19.12 -0.09,-28.68 -0.19,-4.08 -0.16,-8.49 -2.55,-12.01 -2.08,-3.46 -5.98,-5.59 -10.01,-5.54 -6.1,-0.45 -10.97,3.81 -15.63,7.11 -3.04,-3.23 -6.42,-7.2 -11.28,-7.11 -5.67,-0.59 -10.39,3.08 -14.94,5.89 m -229.5,-0.2 c -0.14,-1.48 -0.29,-2.96 -0.43,-4.44 -4.57,-0.01 -9.14,0.04 -13.71,-0.06 -0.24,15.11 0.01,30.23 -0.1,45.35 4.72,0.07 9.44,0.04 14.17,0.04 0.05,-11.11 -0.15,-22.23 0.07,-33.34 4.26,-1.02 8.73,-1.69 13.01,-0.34 1.52,11.16 1.09,22.45 1.11,33.68 4.64,0 9.28,0.07 13.92,-0.08 0.44,-11.45 0.94,-22.96 -0.23,-34.39 -0.51,-6.31 -5.76,-12.29 -12.38,-12.12 -5.81,-0.75 -10.85,2.64 -15.43,5.7 m 168.77,-3.65 c -0.03,3.52 -0.07,7.04 -0.12,10.56 6.15,-1.43 12.48,-3.98 18.85,-2.5 3.31,0.69 5.49,3.46 6.89,6.34 -8.39,1.42 -17.85,0.71 -24.89,6.3 -7.89,6.44 -5.38,21.1 4.3,24.41 6.93,3 13.96,-1.27 19.6,-5.05 0,1.45 0.02,2.9 0.04,4.35 4.61,-0.01 9.22,0 13.83,-0.01 -0.28,-11 0.26,-22 -0.25,-33 -0.08,-5.5 -4.32,-10.45 -9.53,-11.9 -9.39,-2.66 -19.32,-1.46 -28.72,0.5 m 129.45,2.22 c -11.84,9.03 -12.59,29.87 -0.25,38.79 10.54,6.79 24.08,5.27 35.35,1.18 0.18,-3.95 0.1,-7.91 0.11,-11.87 -7.16,3.89 -15.85,7.61 -23.9,4.16 -4.25,-1.44 -5.6,-6.11 -6.83,-9.93 10.57,-0.01 21.14,0.01 31.71,-0.02 -0.5,-6.41 0.04,-13.51 -3.92,-19.01 -3.68,-5.55 -10.65,-7.78 -17.05,-7.57 -5.28,0.18 -10.9,0.96 -15.22,4.27 m -784.24,104.26 c 0.37,18.43 -0.62,36.87 0.48,55.28 15.24,-0.22 30.48,-0.22 45.71,-0.24 1.89,-3.14 4.3,-5.94 6.14,-9.09 1.06,-3.05 1.3,-6.32 2.55,-9.3 0.08,3.11 0.28,6.24 0.09,9.36 -1.64,3.6 -4.85,6.29 -6.46,9.93 0.3,7.51 2.42,14.8 5.35,21.68 9.24,9.98 25.59,11.67 37.22,5 12.43,-7.55 15.61,-26.87 5.38,-37.53 0.07,-2.51 0.04,-5.03 -0.2,-7.53 3.11,-3.47 4.73,-7.93 6.93,-11.98 2.74,0.25 5.49,0.43 8.25,0.57 13.18,0.4 26.37,0 39.55,-0.24 -0.09,-10.25 1.1,-20.69 -1.17,-30.79 -2.61,-7.96 -9.88,-14.81 -18.59,-14.8 -36.6,-0.32 -73.21,0 -109.81,-0.09 -10.82,-0.4 -21.2,8.81 -21.42,19.77 m 103.52,27.6 c -2.03,5.05 -5.58,9.82 -5.36,15.49 1.78,4.36 4.99,7.93 7.55,11.84 15.05,-0.2 30.1,-0.36 45.16,-0.46 0.03,-8.82 0.04,-17.65 -0.1,-26.47 -15.75,-0.05 -31.5,-0.34 -47.25,-0.4 m -103.52,29.52 c -0.04,8.95 -0.05,17.9 -0.07,26.86 19.25,0.55 38.88,-2.26 57.76,2.71 -8.27,-7.22 -12.42,-18.38 -11.71,-29.25 -15.33,0.16 -30.66,-0.36 -45.98,-0.32 m 103.44,16.92 c -1.96,5.19 -6.36,8.79 -9.95,12.82 7.68,-0.9 15.14,-3.42 22.92,-3.46 11.52,-0.09 23.05,0.17 34.56,-0.34 -0.09,-8.18 -0.13,-16.35 -0.03,-24.53 -14.88,-0.02 -29.77,0.19 -44.63,-0.82 -0.68,5.47 -0.94,11.1 -2.87,16.33 m -103.82,13.53 c 2.71,6.87 7.27,14.06 14.88,16.02 7.74,1.68 15.81,1.17 23.63,0.32 11.1,2 22.42,0.42 33.62,0.54 -0.01,-4.85 0.14,-9.7 0.19,-14.54 -8.29,-0.33 -16.6,-0.16 -24.86,-0.92 l 1.11,-0.76 c -16.17,-1.02 -32.38,-0.72 -48.57,-0.66 m 80.35,2.37 c 0.01,4.73 0.13,9.47 0.63,14.19 16.93,0.83 33.9,0.41 50.84,0.27 9.4,-0.23 16.73,-8.12 19.4,-16.64 -14.43,0.47 -28.94,-0.97 -43.31,0.8 -9.04,2.08 -18.36,1.61 -27.56,1.38 m 204.55,65.46 c 0.51,3.35 1.33,6.7 3.16,9.6 5.41,-6.73 14.67,-3.21 21.99,-3.84 0.39,3.59 0.82,7.18 1.25,10.78 -4.3,3.61 -8.67,7.16 -12.71,11.05 -0.62,3.61 -0.17,7.39 -0.46,11.06 -0.08,3.65 0.33,8.69 4.29,10.22 0.65,-5.9 0.86,-11.83 0.82,-17.75 5.63,-4.51 13.98,-9.4 12.33,-17.9 0.17,-4.38 0.29,-8.76 0.1,-13.14 -10.26,0.2 -20.51,0.12 -30.77,-0.08 m 126.92,0.27 c 0.03,7.02 -0.18,14.04 0.43,21.04 7.96,0.45 15.94,0.31 23.9,-0.07 0.13,4.71 0.19,9.44 0.61,14.14 -2.17,3.89 -2.41,8.47 -3.54,12.72 2.76,0.37 5.54,0.54 8.32,0.53 1.51,-16.07 0.74,-32.23 0.61,-48.34 -10.1,-0.78 -20.23,-0.44 -30.33,-0.02 m 216.22,0.01 c -0.06,6.39 -0.38,12.8 0.11,19.18 0.01,2.46 0,4.91 -0.08,7.37 5.94,0.3 11.94,-0.11 17.82,0.98 -0.33,4.93 1.32,10.42 -1.09,14.96 -8.32,2.15 -16.59,-1.08 -24.66,-2.7 1.46,3.42 4.31,6.17 7.9,7.27 7.08,2.29 14.62,0.8 21.91,1.05 1.31,-7.24 1.79,-14.67 1.21,-22 -0.04,-1.29 -0.07,-2.57 -0.08,-3.84 -5.95,-0.74 -11.93,-1.11 -17.91,-1.38 0.03,-5.18 0.07,-10.35 0.15,-15.52 5.53,-0.11 11.07,0.09 16.61,-0.02 1.04,0.13 1.73,-0.3 2.07,-1.27 l -0.73,0.2 c -0.21,-0.89 -0.61,-2.66 -0.81,-3.55 -7.47,-0.43 -14.97,-0.13 -22.42,-0.73 m 39.27,-0.88 c -0.68,7.7 -0.72,15.48 0.06,23.18 -0.16,2.96 -0.19,5.92 -0.21,8.89 5.62,-0.16 11.26,-0.42 16.88,0.08 4.63,4.97 -0.63,12.97 4.45,17.64 0.34,-5.19 0.15,-10.39 0,-15.58 0.7,-0.76 1.39,-1.53 2.07,-2.3 2.41,-2.35 -1.76,-4.95 -2.13,-7.51 1.36,-4.94 1.78,-10.18 1.49,-15.29 -0.07,-2.43 -3.17,-2.59 -4.76,-3.5 0.02,7 0.75,13.97 0.84,20.97 l -0.66,-0.08 c -3.77,3.42 -9.14,2.43 -13.79,2.75 0.3,-9.22 0.54,-18.45 0.63,-27.67 -0.46,0.16 -1.37,0.47 -1.83,0.63 -1.02,-0.76 -2.02,-1.49 -3.04,-2.21 m -546.21,32.67 c 6.09,0.06 12.19,0.14 18.29,0.06 0.68,4.46 -0.85,9.05 0.45,13.44 0.47,1.97 2.42,2.84 4.09,3.62 0.27,-5.19 0.29,-10.39 0.12,-15.59 1.27,-1.35 2.56,-2.68 3.85,-4.01 -1.51,-1.24 -3.03,-2.47 -4.56,-3.67 -0.29,-7.13 0.83,-14.7 -1.77,-21.48 -2.72,7.32 -1.13,15.22 -2.26,22.78 -4.6,-0.05 -9.2,0.12 -13.8,-0.13 0.06,-8.39 0.09,-16.79 0.21,-25.19 -1.46,-0.65 -2.92,-1.32 -4.37,-1.97 -0.09,10.72 0.13,21.43 -0.25,32.14 m 87.76,-30.99 c -0.14,8.57 0.08,17.14 -0.35,25.71 6.05,0.03 12.11,-0.07 18.16,-0.02 0.07,5.33 0.1,10.66 0.13,15.99 -8.77,1.07 -17.79,0.3 -26.03,-3 1.57,3.86 4.8,7.05 8.99,7.86 6.8,1.36 13.79,0.32 20.65,-0.08 1.47,-8.25 1.59,-16.81 -0.21,-25.02 -5.75,-0.12 -11.49,-0.44 -17.24,-0.27 -0.82,-5.56 -1.17,-11.19 -1.16,-16.81 6.31,-0.15 12.63,-0.28 18.93,0.14 0,-1.49 0,-2.97 0.01,-4.45 -7.29,0.03 -14.59,0.05 -21.88,-0.05 m 35.38,-0.24 c 0.61,15.6 -1.49,31.24 0.43,46.79 9.46,0.78 18.94,0.06 28.41,0.18 0.44,-6.6 0.34,-13.23 0.59,-19.84 -8.33,-1.2 -16.75,-0.78 -25.13,-0.84 -0.01,-6.78 -0.17,-13.54 -0.18,-20.31 1.28,-1.7 2.55,-3.39 3.81,-5.09 -2.64,-0.35 -5.28,-0.64 -7.93,-0.89 m 89.9,0.23 c 0.08,6.58 0.04,13.17 -0.3,19.74 -1.84,0.8 -3.67,1.59 -5.51,2.37 -1.27,6.99 -0.6,14.11 -0.4,21.16 1.12,1 2.24,2.01 3.35,3.03 8.02,0.1 16.03,-0.01 24.05,0.2 2.35,-8 2.33,-16.41 1.76,-24.66 -2.05,-0.21 -4.09,-0.41 -6.13,-0.6 -0.19,-6.95 -0.36,-13.9 -0.06,-20.84 -5.58,-0.37 -11.17,-0.32 -16.76,-0.4 m 126.11,-0.42 c 0.06,6.57 0.11,13.15 -0.07,19.73 -1.96,0.93 -3.9,1.91 -5.82,2.92 -0.61,5.48 -0.49,10.99 -0.66,16.5 0.5,3.01 0.5,7.96 4.49,8.37 8.03,0.27 16.28,1.36 24.17,-0.68 1.77,-7.81 2.56,-15.98 0.66,-23.85 l 0.02,-0.6 c -1.75,-0.39 -3.49,-0.77 -5.24,-1.15 -1.82,-6.78 -1.19,-13.82 -1.26,-20.75 -5.44,0.05 -10.87,-0.11 -16.29,-0.49 m 35.47,-0.31 c 0.28,2.67 0.59,5.33 0.91,7.99 7.31,-4.23 15.96,-3.03 24.01,-2.86 -0.18,3.74 0.3,7.63 -0.67,11.27 -3.12,4.26 -7.68,7.12 -11.49,10.7 0.13,3.06 0.23,6.11 0.39,9.17 -0.75,3.96 -0.72,8.08 -0.23,12.08 1.62,-0.35 3.25,-0.69 4.87,-1.06 -0.12,-5.75 0.31,-11.48 0.2,-17.23 3.6,-3.77 9.3,-5.7 11.31,-10.86 0.99,-6.14 0,-12.39 -0.51,-18.54 -9.6,0.12 -19.23,0.43 -28.79,-0.66 m 42.11,-0.32 c 0.08,11.26 -0.32,22.52 0.35,33.76 -0.47,3.58 -1.21,7.23 -0.61,10.85 0.39,1.58 1.35,3.71 3.31,3.61 8.67,0.58 17.37,0.1 26.06,0.25 0.56,-6.09 0.4,-12.23 0.07,-18.33 -0.58,0.09 -1.74,0.27 -2.32,0.36 1.35,-0.37 2.64,-0.92 3.96,-1.42 -8.47,-2.64 -17.41,-1.84 -26.14,-1.98 0.08,-6.18 0.09,-12.37 0.08,-18.55 -0.16,-2.79 2.33,-4.65 3.66,-6.85 -2.8,-0.63 -5.61,-1.19 -8.42,-1.7 m 167.19,0.3 c 0.67,1.43 1.37,2.87 2.05,4.32 7.73,1.77 15.67,0.66 23.5,0.62 -0.02,1.86 -0.28,3.75 0.01,5.6 -0.97,3.83 -1.32,7.78 -2.26,11.62 -5.51,-0.11 -11.02,-0.4 -16.52,-0.63 0.45,1.58 0.91,3.16 1.39,4.75 4.57,0.07 9.4,0.57 13.77,-1.13 3.9,4.81 3.89,11.3 2.72,17.08 -7.93,1.33 -15.97,0.47 -23.94,0.06 0.26,1.97 0.57,3.94 0.96,5.89 9.04,-0.05 18.08,-0.01 27.12,0.01 1.92,-8.46 2.34,-17.47 -0.2,-25.86 l 0.81,-0.34 c 0.2,-1.92 0.38,-3.84 0.55,-5.76 -0.11,-5.01 -0.1,-10.01 -0.16,-15.02 -9.87,-1.43 -19.87,-1.15 -29.8,-1.21 m 41.86,-0.01 c 0.64,1.48 1.31,2.98 1.96,4.47 7.74,1.45 15.61,0.59 23.43,0.58 0.26,4.68 0.48,9.37 0.62,14.05 -7.37,5.2 -16.66,1.19 -24.87,2.02 -0.11,9.01 -0.26,18.03 -0.04,27.04 9.87,-0.02 19.74,0.06 29.61,-0.04 -0.66,-1.79 -1.32,-3.58 -1.99,-5.37 -7.71,0.09 -15.43,0.06 -23.14,0 -0.45,-5.07 -0.12,-10.17 -0.33,-15.25 7.86,-0.38 15.74,-0.02 23.61,-0.2 0.56,-3.67 0.91,-7.37 1.15,-11.08 0,-5.07 -0.18,-10.15 -0.61,-15.2 -9.77,-1.08 -19.59,-0.96 -29.4,-1.02 m -756.07,1.13 c 2.88,4.93 9.21,3.88 14.02,4.28 -0.13,12.46 0.09,24.92 -0.48,37.37 -4.49,0.02 -8.99,0.04 -13.48,0.09 0.9,1.57 1.84,3.11 2.82,4.63 9.14,0.68 18.32,0.24 27.48,0.34 0.3,-6.41 0.14,-12.82 0.22,-19.23 -1.38,-0.75 -2.76,-1.49 -4.14,-2.23 -0.3,5.48 -0.34,10.97 -0.9,16.44 -2.44,0.03 -4.89,0.07 -7.33,0.11 -0.16,-14.03 -0.19,-28.06 -0.11,-42.09 -6.04,0.02 -12.08,-0.17 -18.1,0.29 m 41.97,-0.01 c 1.13,1.19 2.05,2.68 3.49,3.55 7.61,0.63 15.28,0.05 22.91,0.5 -0.07,5.45 -0.33,10.89 -0.52,16.34 -8.04,1.08 -16.16,0.51 -24.24,0.53 -0.45,8.61 -0.85,17.24 -0.56,25.86 9.8,-0.17 19.61,0.15 29.41,-0.27 0.03,-1.54 0.05,-3.08 0.06,-4.61 -8.27,-0.4 -16.56,0 -24.83,-0.26 -0.03,-5.48 -0.18,-10.95 -0.24,-16.43 7.65,0.05 15.3,-0.04 22.95,0.14 2.45,-8.22 2.55,-17.06 0.51,-25.37 -9.64,-0.14 -19.3,-0.55 -28.94,0.02 m 41.48,0.56 c 7.72,6.02 17.89,2.39 26.78,3.29 -0.57,5.68 1.38,12.24 -2.83,16.91 -5.87,0.07 -11.74,0.1 -17.6,0.41 4.44,6.76 13.35,3.4 19.99,4.24 0.06,5.42 0.07,10.84 -0.21,16.25 -8.57,0.04 -17.14,0 -25.71,0.06 0.79,1.43 1.47,2.96 2.59,4.17 1.33,0.86 3.08,0.62 4.61,0.82 7.4,0.18 14.81,0.07 22.21,-0.24 1.95,-7.67 1.28,-15.6 0.17,-23.33 0.31,-7.59 1.16,-15.2 0.65,-22.82 -10.21,-0.58 -20.49,-1.2 -30.65,0.24 m -65.36,71.3 c 2.97,-0.42 5.9,-1.33 8.92,-1.28 2.25,0.04 3.99,2.42 3.43,4.59 -1.31,6.55 -7.07,10.66 -11.33,15.31 -0.06,1.17 -0.12,2.34 -0.18,3.52 5.77,0.1 11.55,0.06 17.31,-0.33 -3.11,-3.96 -8.81,-2.16 -13.15,-2.77 3.22,-3.94 7.43,-7.14 9.75,-11.75 1.32,-2.65 1.93,-6.13 -0.02,-8.63 -3.58,-4.79 -12.02,-4.05 -14.73,1.34 m 19.56,-0.59 c 4.19,0.39 10.28,-2.84 12.97,1.75 -0.12,4.22 -4.84,5.58 -7.47,8.04 2.27,0.2 4.54,0.39 6.82,0.56 0.3,3.02 1.88,7.3 -1.29,9.3 -3.72,1.49 -7.65,-0.57 -11.44,-0.79 3.34,6.98 15.3,5.85 17.13,-1.71 1.16,-3.42 -1.64,-6.25 -3.27,-8.94 1.54,-2.69 4.55,-6.31 1.91,-9.28 -4.01,-4.74 -11.58,-3.17 -15.36,1.07 m 18.83,13.49 c 4.19,0.25 8.38,0.37 12.57,0.49 0.02,2.9 0.04,5.82 0.05,8.73 0.72,0.01 2.15,0.03 2.87,0.04 0.25,-3.79 -0.19,-8.54 3.76,-10.65 -1.11,-0.61 -2.22,-1.21 -3.32,-1.82 -0.14,-4.87 -0.1,-9.75 -0.35,-14.61 -6.74,4.35 -12.03,10.66 -15.58,17.82 m -55.75,-12.11 c 1.54,0.75 3.11,1.45 4.7,2.12 0.28,4.66 1.43,9.47 0.16,14.07 -0.61,2.26 -2.82,3.28 -4.72,4.25 4.52,1.46 9.35,1.33 13.99,0.54 -1.39,-1.64 -3.19,-2.79 -5.25,-3.39 -0.23,-7.5 -0.1,-15 -0.09,-22.5 -2.91,1.67 -5.83,3.31 -8.79,4.91 m 361.24,12.95 c -0.86,-1.11 -1.71,-2.22 -2.55,-3.33 -2.29,0.71 -3.41,2.82 -4.81,4.57 -1.63,0.44 -2.25,-1.51 -3.25,-2.38 0.54,-1.75 -2.46,-2.78 -3.05,-1.02 -1.68,4.66 -2.14,10.42 1.32,14.42 0.35,-2.96 0.56,-5.94 0.89,-8.91 1.17,1.27 2.15,2.69 3.05,4.18 1.15,-1.46 2.41,-2.82 3.81,-4.03 0.29,2.83 0.52,5.66 0.82,8.49 1.11,-1.51 2.2,-3.05 3.29,-4.59 2.84,1.76 5.61,5.58 9.35,3.99 6.57,-2.53 6.29,-14.05 -0.78,-15.65 -3.49,-1.14 -5.76,2.36 -8.09,4.26 m 15.93,-4.57 c 0.28,4.79 0.75,9.57 0.7,14.38 0.79,-2.8 1.28,-5.66 1.72,-8.53 2.19,3.53 3.93,7.4 6.89,10.39 0.51,-4.97 0.33,-9.97 0.42,-14.95 -0.48,0.19 -1.44,0.59 -1.92,0.79 -0.11,2.09 -0.21,4.18 -0.34,6.27 -3.02,-2.26 -4.84,-5.69 -7.47,-8.35 m 10.93,1.24 c 1.79,0.65 3.99,1.3 4.57,3.39 1.03,3.44 0.38,7.1 0.43,10.64 0.51,0 1.55,-0.01 2.06,-0.01 0.14,-3.95 -1.04,-8.39 1.16,-11.95 1.18,-1.94 3.63,-1.18 5.5,-1.36 -0.99,4.8 -0.85,9.98 1,14.56 0.36,-2.61 0.59,-5.24 0.84,-7.86 2.09,-0.09 4.18,-0.18 6.29,-0.26 0.04,1.88 -0.17,3.81 0.26,5.67 1.35,1.88 3.07,3.47 4.68,5.14 2.08,-5.71 2.8,-11.97 6.19,-17.15 4.15,3.59 4.58,9.29 5.77,14.27 1.16,-3.51 1.01,-7.42 2.75,-10.74 0.71,-1.11 2.48,-2.8 3.79,-1.63 1.47,3.58 0.74,7.58 0.89,11.36 3.08,-0.15 6.17,-0.23 9.25,0.08 -0.1,-0.35 -0.29,-1.05 -0.39,-1.39 -3.18,-0.09 -7.51,-0.62 -7.81,-4.6 2.74,-0.75 5.51,-1.34 8.3,-1.94 -2.95,-0.77 -6.48,-0.63 -8.36,-3.45 2.86,-0.97 5.8,-1.69 8.72,-2.45 -4.24,-0.85 -8.6,-1.65 -12.91,-0.81 -1.35,1.72 -2.7,3.42 -4.02,5.16 -2.24,-2.61 -4.76,-5.04 -8.05,-6.23 -1.81,5.12 -2.66,10.53 -4.5,15.63 -0.61,0.06 -1.83,0.17 -2.45,0.23 -0.09,-5.15 0.44,-10.47 -1.29,-15.41 -0.45,2.16 -0.82,4.34 -1.19,6.52 -1.83,-0.03 -3.65,-0.05 -5.47,-0.06 -0.37,-1.66 -0.74,-3.3 -1.11,-4.95 -4.76,-1.62 -10.01,-1.12 -14.9,-0.4 m 61.77,-1.38 c -0.99,2.26 -1.97,4.53 -3.33,6.6 2.05,-0.36 4.1,-0.05 6.12,0.37 -0.88,-2.33 -1.16,-4.99 -2.79,-6.97 m 7.09,14.94 c 0.64,0.01 1.93,0.02 2.57,0.03 -0.04,-1.94 -0.07,-3.87 -0.09,-5.8 2.81,2.24 5.51,4.62 8.45,6.71 -1,-1.92 -2.09,-3.79 -3.19,-5.65 0.75,-2.93 1.21,-5.92 1.16,-8.94 -2.72,-0.22 -5.43,-0.44 -8.14,-0.69 -0.59,4.76 -0.36,9.57 -0.76,14.34 m -12.92,-1.69 c 0.38,0.53 0.78,1.07 1.18,1.6 1.5,-1.51 3.17,-2.86 4.91,-4.09 2,1.69 3.66,4.39 6.62,4.25 -1.12,-2.55 -2.36,-5.03 -3.59,-7.52 -1.6,0.99 -3.2,1.98 -4.81,2.95 0.03,-0.94 0.07,-2.83 0.09,-3.77 -2.23,1.63 -3.02,4.32 -4.4,6.58 m -210.29,10.95 c 0.45,4.78 1.78,9.44 3.92,13.74 0.56,0.83 0.71,2.38 2.02,2.3 2.1,-5.14 4,-10.38 5.35,-15.77 -2.76,3.34 -4.35,7.39 -6.36,11.18 -1.42,-3.91 -2.79,-7.86 -4.93,-11.45 m 41.99,0.68 c -0.12,5.17 -0.05,10.34 -0.02,15.52 3.13,-0.14 6.49,-0.54 9.03,-2.55 2.52,-2 2.67,-5.8 1.61,-8.58 -2.16,-3.67 -6.85,-3.91 -10.62,-4.39 m 56.42,-0.56 c 0.07,1.17 0.16,2.35 0.25,3.53 3.29,0.01 6.57,0.11 9.86,0.27 -0.16,10.07 -0.2,20.15 -0.77,30.2 -3.62,-0.01 -7.25,0.02 -10.85,0.3 6.96,5.74 16.24,1.84 24.3,2.43 -0.01,-5.09 0.12,-10.19 0.16,-15.28 -1.17,0.04 -2.33,0.09 -3.49,0.15 -0.08,3.68 0.88,7.67 -0.83,11.11 -1.08,1.96 -3.47,2.22 -5.45,2.47 -0.01,-11.72 -0.63,-23.42 -0.49,-35.14 -4.23,-0.15 -8.47,-0.03 -12.69,-0.04 m 78.53,13.44 c -4.32,7.99 -10.72,15.21 -12.08,24.48 9.38,-11.49 17.29,-24.35 22.42,-38.31 -5.13,3.11 -7.39,8.91 -10.34,13.83 m -161.12,-12.35 c -2.04,4.83 -3.65,9.83 -5.17,14.85 1.81,-1.6 3.58,-3.24 5.31,-4.92 2.6,1.15 5.15,2.42 7.7,3.68 -1.9,-2.67 -2.84,-5.78 -3.17,-9.01 -1.22,1.4 -2.39,2.84 -3.53,4.31 -0.8,-1.42 -1.61,-2.83 -2.41,-4.23 1.56,-0.77 3.18,-1.45 4.67,-2.37 0.56,-1.69 -2.41,-1.51 -3.4,-2.31 m 8,13.81 c 4.82,0.53 9.66,0.77 14.51,0.86 -0.65,-4.91 -0.68,-9.88 -0.06,-14.79 -0.98,0 -2.93,0.01 -3.9,0.01 0.74,4.34 1.37,8.7 1.74,13.1 -3.34,-0.1 -6.67,-0.32 -9.99,-0.65 -0.01,-4.42 0.35,-8.96 -1.18,-13.2 -1.3,4.78 -0.8,9.78 -1.12,14.67 m 106.33,-13.73 c 6.08,4.73 14,1.91 20.99,2.32 -0.09,4.63 -0.05,9.27 -0.35,13.9 -6.3,-0.26 -12.62,-0.77 -18.89,0.06 -0.98,6.48 -0.4,13.04 -0.33,19.56 7.75,0.01 15.5,-0.14 23.24,-0.62 -6.13,-3.68 -13.54,-1.36 -20.25,-1.92 0.06,-4.56 0.16,-9.12 0.33,-13.68 6.22,0.03 12.43,-0.23 18.65,-0.21 1.02,-6.33 1.19,-12.79 0.86,-19.19 -8.07,-0.54 -16.18,-0.85 -24.25,-0.22 m 67.91,15.28 c 6.29,0.14 12.58,0.11 18.87,0.12 -0.07,6.61 -0.83,13.19 -1.83,19.71 1.76,1.14 3.71,1.91 5.78,2.33 1.54,-12.35 1.47,-24.83 1.22,-37.25 -0.52,-0.16 -1.56,-0.49 -2.08,-0.65 -7.32,0.17 -14.63,0.06 -21.94,-0.05 -0.09,5.26 -0.05,10.53 -0.02,15.79 m 33.32,-15.82 c -0.12,5.26 -0.04,10.53 -0.01,15.79 6.36,0.16 12.73,0.03 19.06,0.75 l 0.16,0.57 c -0.97,6.37 -1.39,12.82 -2.09,19.23 1.79,0.55 3.58,1.06 5.4,1.55 1.47,-12.42 1.59,-24.98 1.25,-37.46 -0.5,-0.12 -1.49,-0.36 -1.99,-0.48 -7.26,0.25 -14.52,0.05 -21.78,0.05 m -173.91,11.24 c -0.03,4.83 -0.04,9.65 -0.02,14.48 5.65,-2.15 11.34,-4.28 16.78,-6.92 0.04,-0.22 0.13,-0.66 0.18,-0.88 -5.58,-2.39 -11.26,-4.53 -16.94,-6.68 m -39.41,12.98 c 2.51,2.07 3.68,5.06 3.77,8.28 0.65,0.04 1.96,0.12 2.62,0.16 -0.01,-5.15 -0.12,-10.3 -0.32,-15.45 -2.08,2.29 -3.41,5.29 -6.07,7.01 m -18.57,-5.1 c 1.59,0.43 3.18,0.83 4.79,1.27 0.2,4.45 0.29,8.91 0.85,13.35 1.89,-5.13 -0.34,-11.83 4.66,-15.55 -3.43,0.38 -6.87,0.65 -10.3,0.93 m 13.18,13.58 c 0.7,-0.04 2.1,-0.11 2.8,-0.15 0.3,-1.89 0.61,-3.77 0.94,-5.64 l 1.07,0.21 c 0.72,-3.7 -1.49,-6.83 -3.09,-9.94 -2.36,4.84 -1.71,10.32 -1.72,15.52 m 14.16,-14.54 c 0.08,5.18 0.08,10.39 0.74,15.55 1.2,-1.91 2.26,-3.89 3.25,-5.91 2.48,2.06 4.97,4.1 7.62,5.94 -1.08,-2.43 -2.23,-4.83 -3.36,-7.22 0.84,-1.37 1.68,-2.73 2.51,-4.09 -0.75,-1.41 -1.5,-2.81 -2.23,-4.22 -2.84,-0.11 -5.69,-0.11 -8.53,-0.05 m 22.13,0.59 c -0.04,4.1 -0.26,8.19 -0.85,12.26 -1.75,0.21 -4.1,0.78 -4.97,-1.28 -1.2,-3.42 -0.27,-7.16 -0.65,-10.7 -0.6,-0.12 -1.78,-0.36 -2.38,-0.48 0.18,4.3 0.22,8.64 1.07,12.89 2.56,1.06 5.43,1.38 8.13,0.57 2.6,-3.91 1.54,-8.86 1.8,-13.27 -0.53,0 -1.61,0.01 -2.15,0.01 m -280.13,68.25 c -3.35,7.41 -4.4,16.5 -0.92,24.06 4.26,9.67 19.02,12.61 26.14,4.44 0.92,1.18 1.84,2.37 2.77,3.55 1.56,0.21 3.13,0.42 4.69,0.65 1.38,-3.47 2.82,-6.9 4.13,-10.39 4.18,-0.06 8.35,0.19 12.53,0.38 1.11,2.9 1.97,5.93 3.58,8.61 1.79,1.21 4.21,0.99 6.26,1.53 -2.46,-8.21 -5.12,-16.38 -8.15,-24.4 -1.69,-4.49 -3.26,-9.01 -4.84,-13.54 -2.12,-0.09 -4.23,-0.19 -6.34,-0.29 -0.98,2.89 -2.15,5.73 -2.73,8.74 -3.52,7.58 -6.12,15.59 -7.75,23.8 -1.09,0.09 -2.18,0.19 -3.27,0.3 -0.11,-1.4 -0.22,-2.81 -0.34,-4.2 -3.72,0.39 -6.59,3.11 -10.16,3.93 -4.15,0.86 -8.6,-1.4 -10.44,-5.2 -3.07,-5.54 -0.92,-11.95 -0.69,-17.86 2.73,-2.22 5.52,-5.11 9.28,-5.19 4.59,0.03 8.3,3.02 12.18,5.07 -0.5,-3.06 -0.28,-7.75 -4.15,-8.62 -7.45,-3.28 -15.99,-0.66 -21.78,4.63 m 63.74,-5.2 c -0.44,6.37 1.44,13.04 -0.23,19.18 0.14,0.01 0.43,0.01 0.57,0.01 l -0.35,0.25 c -0.64,5.75 -0.13,11.52 0.07,17.28 1.72,0.91 3.67,0.88 5.56,0.76 0.54,-4.37 0.49,-8.76 0.47,-13.15 l 1.59,-1.01 c -0.23,-0.14 -0.7,-0.43 -0.93,-0.57 0.8,-0.16 2.4,-0.47 3.2,-0.63 3.48,5.55 8.1,10.25 12.18,15.35 2.51,0.02 5.02,0.03 7.53,0.03 -3.52,-5.32 -7.76,-10.09 -12.16,-14.69 2.48,-3.82 5.37,-7.67 5.94,-12.33 0.43,-4.24 -2.65,-8.11 -6.53,-9.46 -5.44,-1.92 -11.29,-0.78 -16.91,-1.02 m 33.11,0 c 0.46,7.74 0.14,15.5 0.46,23.24 -0.21,4.7 -0.55,9.41 -0.6,14.12 7.12,0.3 14.69,0.79 21.27,-2.49 3.92,-1.99 7.92,-5.57 7.48,-10.4 1.37,-6.83 0.99,-15.08 -4.76,-19.89 -6.46,-5.9 -15.83,-4.49 -23.85,-4.58 m 36.34,-0.12 c 0.61,12.68 -1.56,25.72 2.17,38.08 0.41,-3.9 0.17,-7.85 0.89,-11.71 0.46,3.72 0.52,7.48 1,11.21 0.33,-0.23 1.01,-0.68 1.34,-0.91 0.27,-5.78 -0.11,-11.58 0.23,-17.37 5.2,0.13 10.41,0.09 15.62,0.04 0.33,5.65 0,11.31 0.27,16.97 1.96,-0.19 3.93,-0.35 5.9,-0.49 -0.64,-11.94 -0.18,-23.9 -0.43,-35.85 -1.98,0.05 -3.95,0.1 -5.91,0.17 0.04,4.75 0.02,9.49 0.02,14.24 -5.16,0.01 -10.33,-0.14 -15.49,-0.09 -0.13,-4.74 0.04,-9.47 -0.18,-14.2 -1.81,-0.03 -3.62,-0.06 -5.43,-0.09 m 37.7,4.91 c -5.04,6.74 -4.16,15.77 -2.72,23.56 l -0.27,0.27 c 3.61,5.7 9.8,10.61 16.92,9.83 5.53,0 9.62,-4.15 13.36,-7.68 l -0.31,-0.34 c 1.97,-7.8 3.39,-16.74 -0.98,-24.01 -5.21,-8.97 -19.72,-9.89 -26,-1.63 m 35.68,-5.56 c 0.04,0.58 0.11,1.76 0.14,2.34 -1.07,11.8 -0.65,23.68 -0.68,35.51 7.6,0.33 15.22,0.41 22.84,0.43 0.02,-1.96 0.05,-3.91 0.09,-5.86 -5.47,-0.05 -10.94,0.05 -16.4,0 -0.22,-10.28 0.2,-20.57 -0.27,-30.85 -1.9,-0.56 -3.81,-1.09 -5.72,-1.57 m 27.12,0.62 c -0.08,12.34 0.04,24.67 0.02,37.01 7.22,0.1 15.14,1.32 21.67,-2.55 10.57,-6.84 10.5,-24.68 -0.03,-31.52 -6.51,-3.92 -14.43,-2.75 -21.66,-2.94 m 36.1,0.11 c 0.6,12.37 0.23,24.75 0.4,37.13 7.69,-0.02 15.39,-0.01 23.09,0.01 -0.04,-1.69 -0.08,-3.38 -0.1,-5.06 -5.86,-0.38 -11.73,-0.15 -17.59,-0.24 0.13,-4.2 0.16,-8.4 0.24,-12.59 5.49,0.04 10.99,0.14 16.49,0.09 -0.07,-1.67 -0.13,-3.33 -0.19,-4.99 -5.46,-0.01 -10.9,-0.22 -16.35,-0.19 -0.08,-3.02 -0.07,-6.02 -0.02,-9.03 5.97,0 11.94,-0.07 17.91,0.05 -0.15,-1.75 -0.31,-3.5 -0.47,-5.24 -7.8,-0.02 -15.61,0.02 -23.41,0.06 m 30.34,-0.12 c 0.07,12.34 -0.13,24.69 0.14,37.04 1.88,0.1 3.77,0.22 5.66,0.33 0.15,-5.36 0.18,-10.73 0.58,-16.07 7.27,2.54 9.79,10.65 15.8,14.8 2.11,1.59 4.8,1.71 7.35,1.7 -3.95,-5.49 -8.3,-10.66 -12.72,-15.76 3.58,-3.11 7.22,-7.19 6.91,-12.28 -0.03,-4.55 -3.87,-8.21 -8.12,-9.15 -5.12,-1.11 -10.41,-0.44 -15.6,-0.61 z"
     inkscape:connector-curvature="0" />
  <metadata
     id="metadata239">
    <rdf:RDF>
      <cc:Work>
        <dc:format>image/svg+xml</dc:format>
        <dc:type
           rdf:resource="http://purl.org/dc/dcmitype/StillImage" />
        <cc:license
           rdf:resource="http://creativecommons.org/publicdomain/zero/1.0/" />
        <dc:publisher>
          <cc:Agent
             rdf:about="http://openclipart.org/">
            <dc:title>Openclipart</dc:title>
          </cc:Agent>
        </dc:publisher>
        <dc:title>Credit Card (Front)</dc:title>
        <dc:date>2013-08-20T23:45:47</dc:date>
        <dc:description>A foo credit card (front)</dc:description>
        <dc:source>https://openclipart.org/detail/182038/credit-card-front-by-jmlevick-182038</dc:source>
        <dc:creator>
          <cc:Agent>
            <dc:title>Jmlevick</dc:title>
          </cc:Agent>
        </dc:creator>
        <dc:subject>
          <rdf:Bag>
            <rdf:li>bank</rdf:li>
            <rdf:li>buy</rdf:li>
            <rdf:li>card</rdf:li>
            <rdf:li>credit</rdf:li>
            <rdf:li>credit card</rdf:li>
            <rdf:li>front</rdf:li>
            <rdf:li>money</rdf:li>
            <rdf:li>plastic</rdf:li>
            <rdf:li>purchase</rdf:li>
            <rdf:li>shopping</rdf:li>
          </rdf:Bag>
        </dc:subject>
      </cc:Work>
      <cc:License
         rdf:about="http://creativecommons.org/publicdomain/zero/1.0/">
        <cc:permits
           rdf:resource="http://creativecommons.org/ns#Reproduction" />
        <cc:permits
           rdf:resource="http://creativecommons.org/ns#Distribution" />
        <cc:permits
           rdf:resource="http://creativecommons.org/ns#DerivativeWorks" />
      </cc:License>
    </rdf:RDF>
  </metadata>
</svg>
