<?xml version="1.0" encoding="UTF-8" standalone="no" ?>
<!DOCTYPE svg PUBLIC "-//W3C//DTD SVG 1.1//EN" "http://www.w3.org/Graphics/SVG/1.1/DTD/svg11.dtd">
<svg xmlns="http://www.w3.org/2000/svg" xmlns:xlink="http://www.w3.org/1999/xlink" version="1.1" width="350" height="350" viewBox="0 0 350 350" xml:space="preserve">
<desc>Created with Fabric.js 1.7.22</desc>
<defs>
</defs>
<g id="icon" style="stroke: none; stroke-width: 1; stroke-dasharray: none; stroke-linecap: butt; stroke-linejoin: miter; stroke-miterlimit: 10; fill: none; fill-rule: nonzero; opacity: 1;" transform="translate(-1.9444444444444287 -1.9444444444444287) scale(3.89 3.89)" >
	<path d="M 71.33 14.891 v -8 H 58.67 v 8 H 31.33 v -8 H 18.67 v 8 H 0 v 0 v 20.348 v 47.871 h 90 V 35.238 V 14.891 v 0 H 71.33 z M 62.67 10.891 h 4.66 v 10.174 h -4.66 V 10.891 z M 22.67 10.891 h 4.66 v 10.174 h -4.66 V 10.891 z M 86 79.109 H 4 V 35.238 h 82 V 79.109 z" style="stroke: none; stroke-width: 1; stroke-dasharray: none; stroke-linecap: butt; stroke-linejoin: miter; stroke-miterlimit: 10; fill: rgb(0,0,0); fill-rule: nonzero; opacity: 1;" transform=" matrix(1 0 0 1 0 0) " stroke-linecap="round" />
	<path d="M 30.3 52.694 l -6.381 -1.144 c 0.53 -2.033 1.55 -3.591 3.058 -4.674 c 1.509 -1.083 3.644 -1.624 6.406 -1.624 c 3.171 0 5.463 0.591 6.878 1.773 c 1.414 1.183 2.121 2.669 2.121 4.458 c 0 1.05 -0.287 2 -0.862 2.851 c -0.574 0.851 -1.441 1.597 -2.602 2.237 c 0.938 0.232 1.657 0.504 2.154 0.813 c 0.807 0.497 1.434 1.152 1.881 1.964 c 0.448 0.812 0.672 1.782 0.672 2.909 c 0 1.414 -0.371 2.771 -1.11 4.068 c -0.741 1.298 -1.807 2.298 -3.199 3 c -1.392 0.701 -3.221 1.052 -5.485 1.052 c -2.21 0 -3.953 -0.26 -5.229 -0.778 c -1.275 -0.52 -2.325 -1.279 -3.148 -2.279 s -1.456 -2.257 -1.897 -3.771 l 6.745 -0.896 c 0.265 1.359 0.677 2.302 1.234 2.826 c 0.558 0.525 1.269 0.787 2.13 0.787 c 0.906 0 1.66 -0.331 2.263 -0.994 c 0.602 -0.663 0.903 -1.547 0.903 -2.651 c 0 -1.127 -0.29 -2 -0.87 -2.618 c -0.58 -0.619 -1.368 -0.929 -2.362 -0.929 c -0.53 0 -1.26 0.132 -2.188 0.397 l 0.348 -4.822 c 0.376 0.055 0.669 0.082 0.879 0.082 c 0.884 0 1.621 -0.281 2.212 -0.845 c 0.592 -0.563 0.887 -1.231 0.887 -2.005 c 0 -0.74 -0.221 -1.332 -0.662 -1.773 c -0.442 -0.442 -1.05 -0.663 -1.823 -0.663 c -0.796 0 -1.442 0.24 -1.939 0.721 S 30.477 51.49 30.3 52.694 z" style="stroke: none; stroke-width: 1; stroke-dasharray: none; stroke-linecap: butt; stroke-linejoin: miter; stroke-miterlimit: 10; fill: rgb(0,0,0); fill-rule: nonzero; opacity: 1;" transform=" matrix(1 0 0 1 0 0) " stroke-linecap="round" />
	<path d="M 61.689 45.253 v 24.711 h -6.828 V 53.771 c -1.104 0.84 -2.174 1.52 -3.207 2.039 s -2.328 1.016 -3.887 1.491 v -5.536 c 2.299 -0.739 4.083 -1.629 5.354 -2.668 c 1.271 -1.038 2.265 -2.32 2.983 -3.845 H 61.689 z" style="stroke: none; stroke-width: 1; stroke-dasharray: none; stroke-linecap: butt; stroke-linejoin: miter; stroke-miterlimit: 10; fill: rgb(0,0,0); fill-rule: nonzero; opacity: 1;" transform=" matrix(1 0 0 1 0 0) " stroke-linecap="round" />
</g>
</svg>