<?xml version="1.0" encoding="utf-8"?>
<!-- Generator: Adobe Illustrator 26.0.1, SVG Export Plug-In . SVG Version: 6.00 Build 0)  -->
<svg version="1.1"
	 id="Capa_1" sodipodi:docname="notification_logo.svg" xmlns:cc="http://creativecommons.org/ns#" xmlns:dc="http://purl.org/dc/elements/1.1/" xmlns:inkscape="http://www.inkscape.org/namespaces/inkscape" xmlns:rdf="http://www.w3.org/1999/02/22-rdf-syntax-ns#" xmlns:sodipodi="http://sodipodi.sourceforge.net/DTD/sodipodi-0.dtd" xmlns:svg="http://www.w3.org/2000/svg"
	 xmlns="http://www.w3.org/2000/svg" xmlns:xlink="http://www.w3.org/1999/xlink" x="0px" y="0px" viewBox="0 0 510 510"
	 style="enable-background:new 0 0 510 510;" xml:space="preserve">
<style type="text/css">
	.st0{fill:#FF0000;}
</style>
<sodipodi:namedview  bordercolor="#666666" borderopacity="1" gridtolerance="10" guidetolerance="10" id="namedview38" inkscape:current-layer="Capa_1" inkscape:cx="-282.01271" inkscape:cy="255" inkscape:pageopacity="0" inkscape:pageshadow="2" inkscape:window-height="1145" inkscape:window-maximized="1" inkscape:window-width="1920" inkscape:window-x="0" inkscape:window-y="27" inkscape:zoom="0.4627451" objecttolerance="10" pagecolor="#ffffff" showgrid="false">
	</sodipodi:namedview>
<g id="g3" transform="matrix(0.87658593,0,0,0.87658593,31.470588,31.470588)">
	<g id="notifications">
		<path id="path6" inkscape:connector-curvature="0" d="M255,510c28.05,0,51-22.95,51-51H204C204,487.05,226.95,510,255,510z
			 M420.75,357V216.75c0-79.05-53.55-142.8-127.5-160.65V38.25C293.25,17.85,275.4,0,255,0s-38.25,17.85-38.25,38.25V56.1
			c-73.95,17.85-127.5,81.6-127.5,160.65V357l-51,51v25.5h433.5V408L420.75,357z"/>
	</g>
</g>
<g id="g8">
</g>
<g id="g10">
</g>
<g id="g12">
</g>
<g id="g14">
</g>
<g id="g16">
</g>
<g id="g18">
</g>
<g id="g20">
</g>
<g id="g22">
</g>
<g id="g24">
</g>
<g id="g26">
</g>
<g id="g28">
</g>
<g id="g30">
</g>
<g id="g32">
</g>
<g id="g34">
</g>
<g id="g36">
</g>
<circle class="st0" cx="144.77" cy="128.16" r="49.77"/>
</svg>
