<?xml version="1.0" encoding="utf-8"?>
<!-- Generator: Adobe Illustrator 25.4.2, SVG Export Plug-In . SVG Version: 6.00 Build 0)  -->
<svg version="1.1"
	 id="svg2160" xmlns:cc="http://web.resource.org/cc/" xmlns:dc="http://purl.org/dc/elements/1.1/" xmlns:rdf="http://www.w3.org/1999/02/22-rdf-syntax-ns#" xmlns:svg="http://www.w3.org/2000/svg"
	 xmlns="http://www.w3.org/2000/svg" xmlns:xlink="http://www.w3.org/1999/xlink" x="0px" y="0px" viewBox="0 0 128 64"
	 style="enable-background:new 0 0 128 64;" xml:space="preserve">
<style type="text/css">
	.st0{fill:url(#path3185_00000102540452361423016320000014956746186969440645_);}
	
		.st1{fill:url(#path3187_00000147903716734003441500000003324602086395412917_);stroke:#BE0000;stroke-width:2.5;stroke-linecap:round;stroke-linejoin:round;stroke-miterlimit:3.994;}
	.st2{fill:#FFFFFF;}
</style>
<g id="g2184" transform="translate(4.4998 -.5)">
	
		<radialGradient id="path3185_00000030467150389293892250000010322007367118428294_" cx="-16.5674" cy="50.3283" r="27.545" gradientTransform="matrix(0.9985 0 0 -0.9985 68.4361 71.1131)" gradientUnits="userSpaceOnUse">
		<stop  offset="0" style="stop-color:#FFFFFF"/>
		<stop  offset="1" style="stop-color:#00F038;stop-opacity:0"/>
	</radialGradient>
	<path id="path3185" style="fill:url(#path3185_00000030467150389293892250000010322007367118428294_);" d="M91,33.4
		c0,15.2-12.3,27.5-27.5,27.5S36,48.6,36,33.4S48.3,5.9,63.5,5.9S91,18.2,91,33.4z"/>
	
		<radialGradient id="path3187_00000158018888685928145780000017675824436575809190_" cx="17.2426" cy="74.2998" r="27.545" gradientTransform="matrix(0.9175 0.9439 0.716 -0.696 -16.9867 57.9768)" gradientUnits="userSpaceOnUse">
		<stop  offset="0" style="stop-color:#FF9B9B"/>
		<stop  offset="1" style="stop-color:#F00000"/>
	</radialGradient>
	
		<path id="path3187" style="fill:url(#path3187_00000158018888685928145780000017675824436575809190_);stroke:#BE0000;stroke-width:2.5;stroke-linecap:round;stroke-linejoin:round;stroke-miterlimit:3.994;" d="
		M91,33.4c0,15.2-12.3,27.5-27.5,27.5S36,48.6,36,33.4S48.3,5.9,63.5,5.9S91,18.2,91,33.4z"/>
	<path id="path3207" class="st2" d="M67.6,20.2c-1.8,1.6-3.1,4.4-4.5,5.8c-2.6-2.2-3.8-6.2-6.7-7.4c-3.4,0.9-8.9,4.1-4.9,7.6
		c2.1,3,6.2,5.7,7.2,8.9c-1.5,3.8-4.3,6.6-7,9.4c1.3,4.7,7.8,0.5,10.3-1.8c2.1-4.6,3.6,0.9,5.5,2.9c1.5,6.2,9.8,4.4,10.5-0.7
		c-2.8-4.5-6.8-8.9-9.5-13.4c1.1-4.7,5.6-7.8,6.7-12.3C73.4,16.2,69.9,19.7,67.6,20.2z"/>
</g>
</svg>
